<svg width="171" height="37" viewBox="0 0 171 37" fill="none" xmlns="http://www.w3.org/2000/svg">
<path d="M42.2237 36.9538C52.5523 36.9538 60.9252 28.6814 60.9252 18.4769C60.9252 8.27238 52.5523 0 42.2237 0C31.8952 0 23.5223 8.27238 23.5223 18.4769C23.5223 28.6814 31.8952 36.9538 42.2237 36.9538Z" fill="#82D318"/>
<path d="M44.7466 18.1485L43.872 16.8643C42.3379 14.7222 40.5187 12.7937 38.4633 11.1308C35.007 8.20086 30.701 6.42427 26.1607 6.0549C20.3831 5.79596 14.7277 7.75134 10.3763 11.5124C9.06005 12.5975 7.843 13.7949 6.73928 15.0906C6.73147 15.0983 6.72366 15.106 6.71585 15.106C6.64636 15.1523 6.54563 15.1369 6.49956 15.0675C5.25096 12.9006 4.27151 10.593 3.58241 8.19473L3.57461 8.15619C3.47636 7.90745 3.32646 7.68177 3.13457 7.49366C2.94267 7.30554 2.71301 7.15916 2.46037 7.06392C2.24972 6.97746 2.02285 6.93619 1.79482 6.94284C1.56679 6.94948 1.34278 7.00389 1.13766 7.10246C0.748568 7.31096 0.437709 7.63746 0.25099 8.03374C0.0642709 8.43003 0.0115906 8.87508 0.100729 9.30319L0.108537 9.32631C0.995647 12.465 2.3293 15.4636 4.06965 18.2325C4.1152 18.3034 4.13939 18.3856 4.13939 18.4696C4.13939 18.5535 4.1152 18.6357 4.06965 18.7066C2.32908 21.4849 0.990794 24.49 0.0937011 27.6344L0.0858929 27.6729V27.7115C0.0858929 28.5054 0.550482 29.2246 1.27743 29.5538C1.4945 29.6455 1.73421 29.6987 1.96611 29.7064C2.27727 29.6989 2.58197 29.6171 2.85418 29.4681C3.12639 29.3191 3.35803 29.1073 3.52932 28.8508L3.55274 28.8122L3.56836 28.7737C4.25641 26.3666 5.23834 24.0509 6.49254 21.8778C6.50034 21.8701 6.50034 21.8624 6.50815 21.8547C6.57062 21.7938 6.67056 21.7938 6.73225 21.8547C7.83576 23.1553 9.05279 24.3578 10.3693 25.4483C14.3894 28.8958 19.5062 30.8433 24.8301 30.952C25.2643 30.952 25.7047 30.9366 26.1458 30.9058C30.6873 30.5415 34.9947 28.7646 38.4485 25.8306C40.5013 24.1674 42.3179 22.2389 43.8494 20.0972L44.7161 18.813C44.7956 18.7213 44.8418 18.6061 44.8475 18.4856C44.8531 18.3651 44.8179 18.2462 44.7473 18.1477L44.7466 18.1485ZM40.1967 18.8137C38.0377 21.4885 33.0467 26.5652 25.9514 27.0462C19.6845 27.4748 13.5098 24.2481 9.04504 18.7598C8.98128 18.6819 8.94649 18.5847 8.94649 18.4846C8.94649 18.3844 8.98128 18.2873 9.04504 18.2094C13.5098 12.7134 19.6845 9.49435 25.9444 9.90752C33.0467 10.397 38.0456 15.4884 40.1967 18.1631C40.272 18.2553 40.3131 18.3701 40.3131 18.4884C40.3131 18.6068 40.272 18.7216 40.1967 18.8137V18.8137Z" fill="black"/>
<path fill-rule="evenodd" clip-rule="evenodd" d="M33.3958 16.5729C33.6486 16.6023 33.893 16.6807 34.1151 16.8036C34.3371 16.9264 34.5324 17.0913 34.6898 17.2888C34.8472 17.4863 34.9636 17.7125 35.0323 17.9545C35.101 18.1964 35.1207 18.4494 35.0901 18.6989C35.0606 18.9484 34.9815 19.1897 34.8573 19.409C34.7332 19.6283 34.5664 19.8212 34.3665 19.9767C34.1667 20.1323 33.9377 20.2474 33.6928 20.3154C33.4478 20.3834 33.1916 20.403 32.939 20.3731C32.4673 20.3173 32.0328 20.0927 31.7177 19.7418C31.4025 19.3909 31.2287 18.9381 31.229 18.4692C31.2292 17.9606 31.4338 17.473 31.7979 17.1133C32.162 16.7536 32.6558 16.5512 33.1709 16.5506C33.2412 16.566 33.3177 16.566 33.395 16.5737L33.3958 16.5729Z" fill="black"/>
<path fill-rule="evenodd" clip-rule="evenodd" d="M144.584 10.9397C145.126 10.9397 145.582 10.7863 145.922 10.481C146.271 10.1673 146.449 9.76183 146.449 9.26542C146.449 8.76823 146.271 8.36354 145.922 8.05752C145.582 7.75921 145.134 7.60658 144.584 7.60658C144.027 7.60658 143.571 7.75921 143.238 8.05752C142.897 8.36354 142.727 8.76823 142.727 9.26542C142.727 9.76183 142.897 10.175 143.238 10.481C143.571 10.7863 144.027 10.9397 144.584 10.9397Z" fill="black"/>
<path fill-rule="evenodd" clip-rule="evenodd" d="M144.723 12.896H138.17V12.5222C138.17 11.8492 138.316 11.3297 138.619 10.9851C138.912 10.6491 139.399 10.4425 140.065 10.3893L140.576 10.343C140.932 10.3122 141.218 10.1904 141.435 9.97612C141.651 9.76183 141.76 9.472 141.76 9.09737C141.76 8.56165 141.52 7.91954 140.382 7.91954C140.22 7.91954 140.096 7.92725 140.026 7.94267L139.493 7.98892C138.077 8.11071 136.955 8.6079 136.173 9.46429C135.392 10.3122 134.997 11.4669 134.989 12.8968H133.991C132.8 12.8968 132.545 13.5613 132.545 14.1194C132.545 14.6774 132.792 15.3427 133.991 15.3427H134.989V22.9724C134.989 23.4611 135.144 23.8357 135.462 24.0885C135.763 24.3406 136.15 24.4632 136.599 24.4632C137.048 24.4632 137.426 24.3321 137.728 24.0808C138.031 23.8203 138.185 23.4464 138.185 22.9647V15.335H142.99V22.9647C142.99 23.4464 143.145 23.828 143.462 24.0962C143.764 24.356 144.151 24.4855 144.6 24.4855C145.049 24.4855 145.427 24.356 145.729 24.0962C146.031 23.828 146.185 23.4534 146.185 22.9647V14.1194C146.17 13.5613 145.915 12.8968 144.723 12.8968V12.896ZM157.637 19.3101C157.366 18.8746 156.926 18.5154 156.314 18.2248C155.719 17.9496 154.898 17.6976 153.854 17.4833C152.901 17.2921 152.259 17.0932 151.935 16.9098C151.64 16.7417 151.501 16.4974 151.501 16.1759C151.501 15.8321 151.64 15.5647 151.935 15.3658C152.236 15.1592 152.662 15.0521 153.196 15.0521C153.652 15.0521 154.039 15.106 154.349 15.2132C154.666 15.3195 155.045 15.4953 155.479 15.7173C155.726 15.8553 155.935 15.9616 156.105 16.031C156.283 16.1073 156.469 16.1451 156.663 16.1451C156.956 16.1451 157.204 16.0233 157.405 15.7782C157.599 15.5492 157.692 15.2586 157.692 14.9226C157.692 14.3645 157.421 13.9205 156.88 13.5844C156.368 13.2629 155.809 13.0206 155.223 12.866C154.6 12.703 153.957 12.6208 153.312 12.6216C152.398 12.6216 151.579 12.7742 150.859 13.0803C150.14 13.3855 149.559 13.8218 149.142 14.3868C148.729 14.9374 148.509 15.6057 148.515 16.2908C148.515 17.2158 148.832 17.9496 149.459 18.4846C150.07 19.0049 151.083 19.4019 152.469 19.6771C153.226 19.8451 153.799 19.9908 154.171 20.1203C154.519 20.2436 154.767 20.3731 154.898 20.5026C155.014 20.6252 155.076 20.7932 155.076 21.0152C155.076 21.3436 154.921 21.5887 154.612 21.7722C154.279 21.9703 153.792 22.0697 153.18 22.0697C152.569 22.0697 152.059 22.0088 151.664 21.894C151.211 21.7537 150.769 21.5827 150.341 21.3821C149.853 21.1224 149.474 20.9998 149.18 20.9998C148.886 20.9998 148.639 21.1147 148.445 21.3359C148.252 21.5502 148.151 21.8331 148.151 22.1769C148.151 22.7658 148.422 23.2244 148.963 23.5382C150.015 24.2026 151.408 24.5395 153.111 24.5395C154.581 24.5395 155.78 24.218 156.678 23.5759C157.583 22.9261 158.047 22.0474 158.047 20.969C158.039 20.3037 157.9 19.7464 157.637 19.3101V19.3101ZM166.721 12.6216C165.886 12.6216 165.127 12.782 164.469 13.1026C163.961 13.3472 163.513 13.6969 163.154 14.1278V9.27312C163.154 8.83683 163.007 8.47762 162.713 8.22556C162.427 7.9735 162.04 7.84323 161.575 7.84323C161.104 7.84323 160.717 7.98121 160.423 8.24869C160.121 8.52388 159.966 8.88308 159.966 9.3186V22.9647C159.966 23.431 160.113 23.8049 160.392 24.0808C160.671 24.3483 161.065 24.4855 161.552 24.4855C162.04 24.4855 162.427 24.3483 162.721 24.0808C163.015 23.8056 163.162 23.431 163.162 22.9647V17.8887C163.162 17.0632 163.402 16.4056 163.873 15.9154C164.338 15.4344 164.98 15.19 165.761 15.19C166.42 15.19 166.907 15.3581 167.208 15.6942C167.511 16.0387 167.665 16.596 167.665 17.3607V22.9724C167.665 23.4387 167.812 23.8126 168.106 24.0885C168.392 24.356 168.787 24.4932 169.274 24.4932C169.762 24.4932 170.149 24.356 170.435 24.0885C170.721 23.8134 170.861 23.4464 170.861 22.9724V17.3607C170.845 14.2188 169.46 12.6216 166.721 12.6216V12.6216ZM75.4336 19.3101C75.1627 18.8746 74.7215 18.5154 74.1102 18.2248C73.5144 17.9496 72.6945 17.6976 71.6498 17.4833C70.698 17.2921 70.0561 17.0932 69.7305 16.9098C69.4369 16.7417 69.2979 16.4974 69.2979 16.1759C69.2979 15.8321 69.4369 15.5647 69.7305 15.3658C70.0327 15.1592 70.4582 15.0521 70.9923 15.0521C71.4483 15.0521 71.8356 15.106 72.1448 15.2132C72.4618 15.3195 72.8413 15.4953 73.2747 15.7173C73.5222 15.8553 73.7315 15.9616 73.9017 16.031C74.0797 16.1073 74.2648 16.1451 74.4584 16.1451C74.7528 16.1451 75.0003 16.0233 75.201 15.7782C75.3946 15.5492 75.4875 15.2586 75.4875 14.9226C75.4875 14.3645 75.2166 13.9205 74.6755 13.5844C74.1638 13.2629 73.6053 13.0206 73.0193 12.866C72.3956 12.703 71.7531 12.6208 71.1079 12.6216C70.1951 12.6216 69.3745 12.7742 68.6553 13.0803C67.9354 13.3855 67.3553 13.8218 66.9375 14.3868C66.5245 14.9374 66.3044 15.6057 66.3105 16.2908C66.3105 17.2158 66.6283 17.9496 67.2553 18.4846C67.8659 19.0049 68.8794 19.4019 70.2646 19.6771C71.0228 19.8451 71.5959 19.9908 71.9668 20.1203C72.315 20.2436 72.5626 20.3731 72.6945 20.5026C72.8101 20.6252 72.8725 20.7932 72.8725 21.0152C72.8725 21.3436 72.7179 21.5887 72.408 21.7722C72.0753 21.9703 71.5881 22.0697 70.9767 22.0697C70.3653 22.0697 69.8547 22.0088 69.4604 21.894C69.0077 21.7538 68.5655 21.5827 68.1369 21.3821C67.6496 21.1224 67.2701 20.9998 66.9766 20.9998C66.6822 20.9998 66.4347 21.1147 66.241 21.3359C66.0482 21.5502 65.9474 21.8331 65.9474 22.1769C65.9474 22.7658 66.2184 23.2244 66.7595 23.5382C67.812 24.2026 69.205 24.5395 70.9072 24.5395C72.3767 24.5395 73.5761 24.218 74.474 23.5759C75.3798 22.9261 75.8436 22.0474 75.8436 20.969C75.8436 20.3037 75.7046 19.7464 75.4336 19.3101V19.3101ZM84.0914 22.0697L83.4652 22.0235C82.5055 21.9556 82.0339 21.413 82.0339 20.3731V15.3427H83.8439C84.2928 15.3427 84.6489 15.2355 84.8964 15.0366C85.1518 14.8231 85.2837 14.5171 85.2837 14.1194C85.2837 13.7224 85.1518 13.4164 84.8964 13.2021C84.6489 12.9962 84.2928 12.8968 83.8439 12.8968H82.0339V10.9458C82.0339 10.4957 81.8864 10.1287 81.5928 9.85279C81.3062 9.58531 80.9197 9.4481 80.4473 9.4481C79.9601 9.4481 79.5728 9.58531 79.2792 9.85279C78.9848 10.128 78.838 10.4957 78.838 10.9466V12.896H77.8401C77.3912 12.896 77.0351 13.0024 76.7876 13.2013C76.5323 13.4156 76.4003 13.7216 76.4003 14.1186C76.4003 14.5163 76.5323 14.8224 76.7876 15.0359C77.0351 15.2425 77.3912 15.3419 77.8401 15.3419H78.838V20.1658C78.838 22.8028 80.192 24.2327 82.8616 24.4239L83.4886 24.4701C83.5659 24.4778 83.6432 24.4778 83.7127 24.4778C84.1921 24.4778 84.5794 24.3853 84.8582 24.2096C85.2056 23.9883 85.3759 23.6669 85.3759 23.246C85.3837 22.7419 85.1596 22.1306 84.0914 22.069V22.0697Z" fill="black"/>
<path d="M95.5437 13.821C94.7543 13.0271 93.5393 12.6216 91.9379 12.6216C91.2023 12.6216 90.452 12.7056 89.7016 12.8737C88.9434 13.0417 88.2852 13.2784 87.7363 13.569C87.4115 13.7447 87.171 13.9436 87.0242 14.1502C86.873 14.374 86.7948 14.6382 86.8001 14.9071C86.8001 15.2664 86.9008 15.557 87.1015 15.7859C87.3107 16.0156 87.5739 16.1305 87.8979 16.1305C88.108 16.1305 88.4172 16.0302 88.8349 15.8244C89.4619 15.587 90.003 15.3966 90.4598 15.2741C90.8902 15.1518 91.3354 15.0875 91.7833 15.0829C92.4563 15.0829 92.9514 15.2355 93.2379 15.5493C93.5315 15.863 93.6783 16.3748 93.6783 17.0778V17.4524H93.2528C91.574 17.4524 90.2357 17.5604 89.2683 17.7739C88.2852 17.9951 87.5661 18.3551 87.1171 18.8438C86.6681 19.341 86.444 20.0286 86.444 20.885C86.444 21.5656 86.6299 22.1923 87.0007 22.7504C87.3774 23.3136 87.9017 23.7654 88.5179 24.0577C89.1519 24.3714 89.864 24.5318 90.6378 24.5318C91.4038 24.5318 92.0847 24.356 92.6648 24.0037C93.0635 23.7671 93.4064 23.4491 93.6705 23.071C93.6861 23.4688 93.8337 23.7979 94.0961 24.0577C94.3748 24.3252 94.7465 24.4632 95.1877 24.4632C95.6593 24.4632 96.0387 24.3321 96.3097 24.0654C96.5877 23.7979 96.7274 23.4387 96.7274 22.987V17.4293C96.7352 15.8321 96.3323 14.6165 95.5437 13.8218V13.821ZM93.6783 19.2724V19.6007C93.6783 20.3654 93.4464 20.9921 92.9896 21.4739C92.5336 21.9556 91.9535 22.1923 91.218 22.1923C90.7463 22.1923 90.3591 22.0551 90.042 21.7645C89.725 21.4816 89.5696 21.1224 89.5696 20.6784C89.5696 20.3269 89.679 20.0517 89.8953 19.8536C90.1193 19.647 90.4988 19.5013 91.0399 19.4096C91.5974 19.3179 92.4017 19.2724 93.4152 19.2724H93.6783V19.2724Z" fill="black"/>
<path fill-rule="evenodd" clip-rule="evenodd" d="M109.656 21.8786L105.765 18.4314L109.27 15.2132C109.587 14.8994 109.749 14.5402 109.749 14.1502C109.749 13.7601 109.602 13.4164 109.309 13.1335C109.014 12.8429 108.674 12.6979 108.28 12.6979C107.885 12.6979 107.529 12.8506 107.227 13.1489L102.546 17.5827V9.35714C102.546 8.86767 102.391 8.49381 102.074 8.24098C101.772 7.98892 101.385 7.86635 100.936 7.86635C100.488 7.86635 100.108 7.99662 99.807 8.24098C99.5048 8.50075 99.3502 8.87537 99.3502 9.35714V22.9801C99.3502 23.4611 99.5048 23.8434 99.807 24.0962C100.101 24.3483 100.48 24.4778 100.936 24.4778C101.385 24.4778 101.772 24.3483 102.074 24.1032C102.384 23.8434 102.546 23.4688 102.546 22.987V19.425L107.692 24.0269C108.009 24.3252 108.365 24.4778 108.744 24.4778C109.123 24.4778 109.463 24.3252 109.741 24.0192C110.012 23.7393 110.162 23.3668 110.16 22.9801C110.168 22.5669 109.997 22.2 109.656 21.8786V21.8786Z" fill="black"/>
<path d="M120.892 20.9998C120.652 20.9998 120.296 21.1224 119.816 21.3744C119.344 21.581 118.918 21.7491 118.547 21.8716C118.191 21.9857 117.766 22.0474 117.294 22.0474C116.372 22.0474 115.662 21.81 115.181 21.3513C114.732 20.9081 114.446 20.2197 114.346 19.2947H120.992C121.464 19.2947 122.021 19.0966 122.021 18.1639C122.021 17.0477 121.804 16.0688 121.379 15.2432C120.974 14.4416 120.346 13.7706 119.569 13.3092C118.795 12.8583 117.874 12.6286 116.837 12.6286C115.754 12.6286 114.764 12.8814 113.905 13.3778C113.041 13.8769 112.342 14.6123 111.893 15.4953C111.421 16.3972 111.181 17.4378 111.181 18.5994C111.181 20.4263 111.73 21.894 112.821 22.9492C113.905 24.0037 115.398 24.5472 117.247 24.5472C117.859 24.5472 118.508 24.4547 119.182 24.2797C119.855 24.1032 120.466 23.8665 120.992 23.5682C121.611 23.2244 121.921 22.7812 121.921 22.2532C121.921 21.8863 121.828 21.581 121.642 21.359C121.456 21.1147 121.201 20.9998 120.892 20.9998H120.892ZM119.236 17.4601H114.346C114.454 16.6654 114.709 16.0464 115.127 15.6179C115.568 15.1669 116.164 14.938 116.899 14.938C117.626 14.938 118.184 15.1592 118.586 15.6024C118.965 16.0233 119.182 16.65 119.235 17.4601H119.236Z" fill="black"/>
<path fill-rule="evenodd" clip-rule="evenodd" d="M127.971 16.5729C128.224 16.6023 128.468 16.6807 128.691 16.8036C128.913 16.9264 129.108 17.0913 129.265 17.2888C129.423 17.4863 129.539 17.7125 129.608 17.9545C129.676 18.1964 129.696 18.4494 129.666 18.6989C129.636 18.9483 129.557 19.1896 129.433 19.4088C129.309 19.628 129.142 19.8209 128.942 19.9764C128.743 20.132 128.514 20.2471 128.269 20.3151C128.024 20.3832 127.768 20.4029 127.515 20.3731C127.044 20.3173 126.609 20.0927 126.294 19.7418C125.979 19.3909 125.805 18.9381 125.805 18.4692C125.805 17.9606 126.01 17.473 126.374 17.1133C126.738 16.7536 127.232 16.5512 127.747 16.5506C127.817 16.566 127.894 16.566 127.971 16.5737V16.5729Z" fill="black"/>
</svg>
